<?xml version="1.0" standalone="no"?>
<!DOCTYPE svg PUBLIC "-//W3C//DTD SVG 20010904//EN"
 "http://www.w3.org/TR/2001/REC-SVG-20010904/DTD/svg10.dtd">
<svg version="1.0" xmlns="http://www.w3.org/2000/svg"
 width="438.000000pt" height="438.000000pt" viewBox="0 0 438.000000 438.000000"
 preserveAspectRatio="xMidYMid meet">
<metadata>
Created by potrace 1.14, written by Peter Selinger 2001-2017
</metadata>
<g transform="translate(0.000000,438.000000) scale(0.100000,-0.100000)"
fill="#000000" stroke="none">
<path d="M1852 4081 c-10 -6 -97 -150 -222 -366 -10 -16 -70 -120 -135 -230
-65 -110 -143 -243 -174 -296 -67 -115 -409 -698 -422 -719 -84 -143 -167
-284 -211 -360 -30 -52 -124 -212 -208 -355 -149 -254 -458 -782 -467 -798 -4
-7 72 -145 149 -268 15 -25 28 -48 28 -51 0 -4 28 -53 62 -110 86 -145 110
-188 103 -188 -4 0 1 -7 10 -17 15 -14 51 -17 293 -19 153 -1 549 -5 882 -8
333 -4 844 -8 1135 -11 292 -3 704 -7 918 -10 259 -3 387 -1 387 6 0 6 4 8 8
5 9 -5 374 603 378 631 2 9 -1 22 -6 28 -4 5 -20 33 -36 60 -28 51 -762 1355
-794 1410 -9 17 -32 57 -50 90 -18 33 -141 251 -273 485 -276 489 -321 570
-351 625 -12 22 -75 133 -139 247 -64 113 -117 211 -117 217 0 12 -730 14
-748 2z m108 -212 c50 -89 90 -163 88 -165 -2 -1 -44 69 -93 156 -49 87 -93
156 -99 153 -5 -3 -6 -1 -2 5 4 7 9 12 11 12 2 0 45 -72 95 -161z m-182 1 c-7
-10 -14 -17 -17 -15 -4 4 18 35 25 35 2 0 -1 -9 -8 -20z m-21 -37 c-2 -5 -26
-46 -54 -93 -28 -47 -83 -141 -123 -210 -228 -391 -412 -700 -417 -700 -5 0
-13 -14 99 175 52 88 183 312 292 498 109 185 200 337 202 337 3 0 3 -3 1 -7z
m313 -163 c6 -11 8 -20 6 -20 -3 0 -10 9 -16 20 -6 11 -8 20 -6 20 3 0 10 -9
16 -20z m30 -50 c6 -11 8 -20 6 -20 -3 0 -10 9 -16 20 -6 11 -8 20 -6 20 3 0
10 -9 16 -20z m48 -95 c-3 -3 -9 2 -12 12 -6 14 -5 15 5 6 7 -7 10 -15 7 -18z
m40 -70 c-3 -3 -9 2 -12 12 -6 14 -5 15 5 6 7 -7 10 -15 7 -18z m22 -35 c6
-11 8 -20 6 -20 -3 0 -10 9 -16 20 -6 11 -8 20 -6 20 3 0 10 -9 16 -20z m58
-105 c-3 -3 -9 2 -12 12 -6 14 -5 15 5 6 7 -7 10 -15 7 -18z m40 -70 c-3 -3
-9 2 -12 12 -6 14 -5 15 5 6 7 -7 10 -15 7 -18z m76 -131 c3 -8 2 -12 -4 -9
-6 3 -10 10 -10 16 0 14 7 11 14 -7z m-445 -312 c17 -29 31 -55 31 -57 0 -2
20 -38 45 -79 25 -42 45 -79 45 -81 0 -3 18 -34 40 -70 22 -36 40 -67 40 -69
0 -2 41 -75 91 -162 110 -192 111 -194 105 -194 -2 0 -55 89 -117 198 -62 108
-120 208 -129 222 -10 14 -34 57 -54 95 -21 39 -53 95 -71 125 -19 30 -34 61
-35 68 0 6 -4 12 -10 12 -5 0 -10 7 -10 15 0 14 -47 52 -54 44 -2 -2 -56 -94
-121 -204 -65 -110 -135 -228 -156 -263 -22 -35 -39 -66 -39 -69 0 -2 -10 -19
-22 -36 -13 -18 -28 -41 -34 -52 -33 -61 -74 -132 -134 -230 -37 -60 -107
-177 -155 -260 -49 -82 -135 -228 -192 -323 -57 -95 -103 -177 -103 -183 0 -5
-5 -9 -11 -9 -6 0 -2 15 9 33 29 46 239 402 277 467 17 30 72 123 120 205 49
83 117 197 151 255 33 58 106 181 160 273 55 92 107 182 118 200 27 47 116
198 133 225 l15 24 18 -34 c9 -18 32 -57 49 -86z m-794 -12 c-9 -16 -18 -30
-21 -30 -2 0 2 14 11 30 9 17 18 30 21 30 2 0 -2 -13 -11 -30z m-45 -77 c-12
-21 -56 -95 -97 -165 -41 -71 -77 -128 -80 -128 -2 0 -2 3 0 8 11 19 152 261
169 290 11 17 22 32 25 32 3 0 -5 -17 -17 -37z m-195 -333 c-9 -16 -18 -30
-21 -30 -2 0 2 14 11 30 9 17 18 30 21 30 2 0 -2 -13 -11 -30z m-46 -77 c-12
-21 -27 -42 -32 -48 -11 -11 9 29 31 63 24 37 25 25 1 -15z m1299 -23 c-7 -10
-14 -17 -17 -15 -4 4 18 35 25 35 2 0 -1 -9 -8 -20z m106 -155 c13 -22 78
-137 146 -255 68 -118 134 -235 148 -259 14 -25 38 -67 54 -94 l29 -49 -203 6
c-112 3 -311 9 -443 12 -132 3 -241 7 -243 9 -2 2 15 33 37 70 23 37 41 68 41
70 0 1 63 110 140 240 77 131 140 240 140 242 0 2 11 20 23 41 13 20 32 50 41
66 l18 28 25 -43 c14 -24 35 -62 47 -84z m-1458 88 c-8 -16 -22 -37 -31 -48
-16 -19 -17 -19 -3 5 8 14 20 35 27 48 6 12 14 22 17 22 2 0 -2 -12 -10 -27z
m-67 -113 c-12 -22 -24 -38 -26 -36 -4 4 37 76 44 76 2 0 -6 -18 -18 -40z
m1619 -45 c-3 -3 -9 2 -12 12 -6 14 -5 15 5 6 7 -7 10 -15 7 -18z m-1658 -25
c-6 -11 -13 -20 -16 -20 -2 0 0 9 6 20 6 11 13 20 16 20 2 0 0 -9 -6 -20z
m1680 -10 c6 -11 8 -20 6 -20 -3 0 -10 9 -16 20 -6 11 -8 20 -6 20 3 0 10 -9
16 -20z m-1710 -40 c-6 -11 -13 -20 -16 -20 -2 0 0 9 6 20 6 11 13 20 16 20 2
0 0 -9 -6 -20z m-60 -100 c-11 -22 -23 -40 -25 -40 -3 0 4 18 15 40 11 22 23
40 25 40 3 0 -4 -18 -15 -40z m1854 -6 c3 -8 2 -12 -4 -9 -6 3 -10 10 -10 16
0 14 7 11 14 -7z m-1919 -104 c-9 -16 -18 -30 -21 -30 -2 0 2 14 11 30 9 17
18 30 21 30 2 0 -2 -13 -11 -30z m-35 -60 c-6 -11 -13 -20 -16 -20 -2 0 0 9 6
20 6 11 13 20 16 20 2 0 0 -9 -6 -20z m-40 -70 c-6 -11 -13 -20 -16 -20 -2 0
0 9 6 20 6 11 13 20 16 20 2 0 0 -9 -6 -20z m-30 -50 c-6 -11 -13 -20 -16 -20
-2 0 0 9 6 20 6 11 13 20 16 20 2 0 0 -9 -6 -20z m2215 -50 c9 -16 13 -30 11
-30 -3 0 -12 14 -21 30 -9 17 -13 30 -11 30 3 0 12 -13 21 -30z m-2264 -33
c-10 -9 -11 -8 -5 6 3 10 9 15 12 12 3 -3 0 -11 -7 -18z m2297 -32 c-3 -3 -9
2 -12 12 -6 14 -5 15 5 6 7 -7 10 -15 7 -18z m-2348 -55 c-6 -11 -13 -20 -16
-20 -2 0 0 9 6 20 6 11 13 20 16 20 2 0 0 -9 -6 -20z m-56 -99 c-20 -33 -38
-61 -41 -61 -3 0 8 21 23 48 42 73 48 81 51 78 2 -2 -13 -31 -33 -65z m-71
-116 c-13 -25 -27 -45 -29 -45 -5 0 24 60 38 78 20 24 16 12 -9 -33z m631 -44
c-20 -34 -41 -64 -45 -67 -5 -3 10 26 33 65 23 38 44 69 46 67 1 -2 -14 -31
-34 -65z m-691 -61 c-15 -28 -36 -60 -47 -73 l-18 -22 14 25 c8 14 27 46 42
73 15 26 30 47 33 47 2 0 -8 -23 -24 -50z m611 -73 c-14 -26 -28 -47 -30 -47
-3 0 7 23 22 50 15 28 29 49 31 47 2 -2 -8 -25 -23 -50z m-689 -67 c-2 -27
-15 -38 -15 -13 0 16 8 33 15 33 1 0 1 -9 0 -20z m628 -35 c-13 -25 -29 -48
-35 -51 -5 -4 -3 5 6 20 9 14 23 37 31 51 26 43 25 27 -2 -20z m687 11 c0 -3
-4 -8 -10 -11 -5 -3 -10 -1 -10 4 0 6 5 11 10 11 6 0 10 -2 10 -4z m2063 -33
c-7 -2 -19 -2 -25 0 -7 3 -2 5 12 5 14 0 19 -2 13 -5z m-2747 -70 c-8 -16 -22
-37 -31 -48 -16 -19 -17 -19 -3 5 8 14 20 35 27 48 6 12 14 22 17 22 2 0 -2
-12 -10 -27z m3529 -69 c-49 -84 -56 -93 -47 -68 9 26 75 135 79 130 2 -2 -12
-30 -32 -62z m-3605 36 c-6 -11 -13 -20 -16 -20 -2 0 0 9 6 20 6 11 13 20 16
20 2 0 0 -9 -6 -20z m10 -77 c-85 -142 -192 -327 -202 -348 -6 -14 -15 -25
-19 -25 -5 0 14 39 43 88 132 226 190 322 195 322 3 0 -5 -17 -17 -37z m-75
-33 c-9 -16 -18 -30 -21 -30 -2 0 2 14 11 30 9 17 18 30 21 30 2 0 -2 -13 -11
-30z m3594 -57 c-12 -21 -38 -62 -56 -91 -18 -29 -33 -56 -33 -61 0 -5 -6 -14
-13 -20 -8 -6 -24 -30 -36 -53 -26 -52 -60 -97 -61 -82 0 6 20 42 45 78 25 37
72 112 106 167 34 54 63 99 66 99 2 0 -6 -17 -18 -37z m-3711 -143 c-7 -10
-14 -17 -17 -15 -4 4 18 35 25 35 2 0 -1 -9 -8 -20z"/>
</g>
</svg>
